<svg width="92" height="44" viewBox="0 0 92 44" fill="none" xmlns="http://www.w3.org/2000/svg">
<g clip-path="url(#clip0)">
<path d="M69.9489 0.240613C69.5117 -0.180286 68.8236 -0.180286 68.3865 0.240613C67.9641 0.676232 67.9641 1.37773 68.3865 1.79765L87.3606 20.6924L1.24904 20.6924C0.639641 20.6924 0.155272 21.1751 0.155272 21.7824C0.155272 22.3898 0.639641 22.8882 1.24904 22.8882L87.3606 22.8882L68.8088 42.2024C68.3865 42.638 68.3865 43.3238 68.8088 43.7595C69.2459 44.1804 69.9341 44.1804 70.3712 43.7595L90.7984 22.5605C91.2208 22.1396 91.2208 21.439 90.7984 21.0034L69.9489 0.240613Z" fill="#F57B20"/>
</g>
<defs>
<clipPath id="clip0">
<rect width="44" height="91" fill="white" transform="translate(0.155273 44) rotate(-90)"/>
</clipPath>
</defs>
</svg>
