<svg width="76" height="76" viewBox="0 0 76 76" xmlns="http://www.w3.org/2000/svg">
<path d="M76 16.9258L68.3429 21.4614C61.8286 12.9432 52.8 8.73945 41.3714 8.73945C32.2286 8.73945 24.6857 11.6157 18.7429 17.2576C12.6857 22.8996 9.71429 29.7584 9.71429 37.9447C9.71429 43.2547 11.0857 48.1223 13.8286 52.7686C16.5714 57.4148 20.3429 61.0655 25.2571 63.6099C30.0571 66.1543 35.5429 67.4818 41.4857 67.4818C52.4571 67.4818 61.3714 63.278 68.3429 54.7598L76 59.6274C72.4571 64.8268 67.6572 68.9199 61.6 71.6856C55.5429 74.5619 48.6857 76 41.0286 76C29.2571 76 19.4286 72.3493 11.6571 65.048C3.88571 57.8573 0 49.0073 0 38.6084C0 31.639 1.82857 25.1121 5.48571 19.1383C9.14286 13.0539 14.0571 8.40757 20.4571 5.08879C26.8571 1.65939 33.9429 0 41.8286 0C46.7429 0 51.5429 0.774381 56.1143 2.21252C60.6857 3.65066 64.5714 5.5313 67.7714 7.96507C70.9714 10.2882 73.7143 13.2751 76 16.9258Z" fill="#0B2659"/>
<path d="M63.8858 24.4483L59.0858 27.3246C54.9715 22.0146 49.2572 19.2489 42.0572 19.2489C36.3429 19.2489 31.5429 21.0189 27.6572 24.6696C23.8858 28.2096 21.9429 32.6346 21.9429 37.7234C21.9429 41.0422 22.8572 44.2504 24.5715 47.1266C26.2858 50.1135 28.6858 52.3261 31.7715 53.9855C34.8572 55.6448 38.2858 56.4192 42.0572 56.4192C49.0286 56.4192 54.7429 53.7642 59.0858 48.3435L63.8858 51.4411C61.6001 54.7598 58.6287 57.3042 54.7429 59.0742C50.9715 60.9549 46.6286 61.8399 41.7144 61.8399C34.2858 61.8399 28.0001 59.5168 23.0858 54.9811C18.1715 50.3348 15.6572 44.8035 15.6572 38.1659C15.6572 33.7409 16.8001 29.6477 19.0858 25.7758C21.3715 22.0146 24.5715 19.0277 28.5715 16.9258C32.5715 14.8239 37.1429 13.7176 42.0572 13.7176C45.1429 13.7176 48.2286 14.1601 51.0858 15.1558C54.0572 16.0408 56.4572 17.2576 58.5144 18.8064C60.8001 20.2445 62.5144 22.1252 63.8858 24.4483Z" fill="#0070BA"/>
<path d="M15.771 38.1659C15.771 33.7409 16.9139 29.6477 19.1996 25.7758C21.4853 22.0146 24.6853 19.0277 28.6853 16.9258C32.6853 14.8239 37.2567 13.7176 42.171 13.7176C44.7996 13.7176 47.3139 14.0495 49.8282 14.7132V9.62446C47.1996 9.07133 44.3424 8.73945 41.371 8.73945C32.2282 8.73945 24.6853 11.6157 18.7424 17.2576C12.6853 22.8996 9.71387 29.7584 9.71387 37.9447C9.71387 43.0335 10.971 47.7904 13.5996 52.3261H20.571C17.371 48.2329 15.771 43.5866 15.771 38.1659Z" fill="#EE7402"/>
</svg>
