<svg width="853" height="792" fill="none" xmlns="http://www.w3.org/2000/svg"><g opacity=".05" fill="#fff"><path d="M166.125-40.05h68.4v228.8h85.2v52h-153.6v-280.8zM518.731 158.35c13.6-14.667 20.4-34.267 20.4-58.8 0-24.533-6.8-44.133-20.4-58.8-13.333-14.667-31.333-22-54-22-22.4 0-40.4 7.333-54 22-13.333 14.667-20 34.267-20 58.8 0 24.533 6.667 44.133 20 58.8 13.6 14.667 31.6 22 54 22 22.667 0 40.667-7.333 54-22zm-156 44.4c-27.733-27.2-41.6-61.6-41.6-103.2s13.867-75.867 41.6-102.8c28-27.2 62.134-40.8 102.4-40.8 40.534 0 74.534 13.6 102 40.8 27.734 26.933 41.6 61.2 41.6 102.8 0 41.6-13.866 76-41.6 103.2-27.733 27.2-61.733 40.8-102 40.8-40.266 0-74.4-13.6-102.4-40.8zM705.166 240.75l-99.6-280.8h72.8l69.6 214 69.6-214h72.8l-99.6 280.8h-85.6zM170.891 259.15v52h-101.6v60.4h89.6v52h-89.6v65.2h101.6v52h-170v-281.6h170zM521.397 259.95h73.6l-78.4 280.8h-78.4l-49.2-178-48.8 178h-78.4l-79.6-280.8h73.2l48.8 202 50-202h77.6l48 198.8 41.6-198.8zM788.966 458.35c13.6-14.667 20.4-34.267 20.4-58.8 0-24.533-6.8-44.133-20.4-58.8-13.334-14.667-31.334-22-54-22-22.4 0-40.4 7.333-54 22-13.334 14.667-20 34.267-20 58.8 0 24.533 6.666 44.133 20 58.8 13.6 14.667 31.6 22 54 22 22.666 0 40.666-7.333 54-22zm-156 44.4c-27.734-27.2-41.6-61.6-41.6-103.2s13.866-75.867 41.6-102.8c28-27.2 62.133-40.8 102.4-40.8 40.533 0 74.533 13.6 102 40.8 27.733 26.933 41.6 61.2 41.6 102.8 0 41.6-13.867 76-41.6 103.2-27.734 27.2-61.734 40.8-102 40.8-40.267 0-74.4-13.6-102.4-40.8zM456.322 731.55v109.2h-68.4v-280.8h110.8c32.533 0 57.867 8.4 76 25.2 18.133 16.8 27.2 37.067 27.2 60.8 0 16.267-4.934 32.133-14.8 47.6-9.867 15.467-26 26.4-48.4 32.8l68.8 114.4h-80l-63.2-109.2h-8zm0-119.6v67.6h42.4c10.4 0 18.533-3.067 24.4-9.2 6.133-6.133 9.2-14.133 9.2-24 0-10.133-3.067-18.4-9.2-24.8-6.134-6.4-14.267-9.6-24.4-9.6h-42.4zM703.509 840.75h-68.4v-280.8h68.4v123.2l92.8-123.2h89.6l-115.6 140.4 115.6 140.4h-88l-94.4-124v124z"/></g></svg>