<svg width="319" height="540" viewBox="0 0 319 540" fill="none" xmlns="http://www.w3.org/2000/svg">
<g opacity="0.05">
<path d="M117.168 1.81696H148.359V105.747H187.211V129.367H117.168V1.81696Z" fill="white"/>
<path d="M277.959 91.9381C284.161 85.2759 287.262 76.3728 287.262 65.2288C287.262 54.0848 284.161 45.1817 277.959 38.5195C271.879 31.8573 263.671 28.5262 253.335 28.5262C243.12 28.5262 234.912 31.8573 228.71 38.5195C222.63 45.1817 219.59 54.0848 219.59 65.2288C219.59 76.3728 222.63 85.2759 228.71 91.9381C234.912 98.6003 243.12 101.931 253.335 101.931C263.671 101.931 271.879 98.6003 277.959 91.9381ZM206.822 112.106C194.175 99.751 187.852 84.1252 187.852 65.2288C187.852 46.3324 194.175 30.7672 206.822 18.533C219.59 6.17766 235.155 0 253.517 0C272.001 0 287.505 6.17766 300.03 18.533C312.677 30.7672 319 46.3324 319 65.2288C319 84.1252 312.677 99.751 300.03 112.106C287.383 124.462 271.879 130.639 253.517 130.639C235.155 130.639 219.59 124.462 206.822 112.106Z" fill="white"/>
<path d="M149.573 265.276L104.155 137.725H137.352L169.09 234.933L200.828 137.725H234.026L188.607 265.276H149.573Z" fill="white"/>
<path d="M317.38 137.725V161.346H271.05V188.782H311.908V212.402H271.05V242.019H317.38V265.639H239.859V201.682V137.725H317.38Z" fill="white"/>
<path d="M154.678 276.178H188.24L152.489 403.728H116.738L94.3025 322.873L72.0493 403.728H36.2982L0 276.178H33.3797L55.633 367.934L78.4334 276.178H113.82L135.708 366.48L154.678 276.178Z" fill="white"/>
<path d="M276.692 366.299C282.893 359.637 285.994 350.734 285.994 339.59C285.994 328.445 282.893 319.542 276.692 312.88C270.612 306.218 262.403 302.887 252.067 302.887C241.853 302.887 233.644 306.218 227.443 312.88C221.363 319.542 218.322 328.445 218.322 339.59C218.322 350.734 221.363 359.637 227.443 366.299C233.644 372.961 241.853 376.292 252.067 376.292C262.403 376.292 270.612 372.961 276.692 366.299ZM205.554 386.467C192.908 374.112 186.584 358.486 186.584 339.59C186.584 320.693 192.908 305.128 205.554 292.894C218.322 280.538 233.888 274.361 252.25 274.361C270.733 274.361 286.237 280.538 298.762 292.894C311.409 305.128 317.732 320.693 317.732 339.59C317.732 358.486 311.409 374.112 298.762 386.467C286.116 398.822 270.611 405 252.25 405C233.888 405 218.322 398.822 205.554 386.467Z" fill="white"/>
<path d="M119.499 490.397V540H88.3084V412.45H138.834C153.67 412.45 165.222 416.265 173.491 423.896C181.76 431.528 185.894 440.733 185.894 451.514C185.894 458.903 183.645 466.11 179.145 473.136C174.646 480.161 167.289 485.128 157.074 488.035L188.448 540H151.967L123.147 490.397H119.499ZM119.499 436.07V466.777H138.834C143.577 466.777 147.285 465.384 149.961 462.598C152.758 459.812 154.156 456.178 154.156 451.696C154.156 447.093 152.758 443.338 149.961 440.431C147.164 437.524 143.455 436.07 138.834 436.07H119.499Z" fill="white"/>
<path d="M232.219 540H201.028V412.45H232.219V468.412L274.536 412.45H315.395L262.68 476.225L315.395 540H275.266L232.219 483.674V540Z" fill="white"/>
</g>
</svg>
