<svg width="605" height="1024" viewBox="0 0 605 1024" fill="none" xmlns="http://www.w3.org/2000/svg">
<g opacity="0.05">
<path d="M222.215 3.44549H281.37V200.528H355.055V245.319H222.215V3.44549Z" fill="white"/>
<path d="M527.164 174.342C538.926 161.708 544.807 144.825 544.807 123.693C544.807 102.561 538.926 85.6779 527.164 73.0444C515.633 60.4109 500.066 54.0942 480.463 54.0942C461.09 54.0942 445.523 60.4109 433.761 73.0444C422.23 85.6779 416.464 102.561 416.464 123.693C416.464 144.825 422.23 161.708 433.761 174.342C445.523 186.975 461.09 193.292 480.463 193.292C500.066 193.292 515.633 186.975 527.164 174.342ZM392.249 212.587C368.264 189.157 356.271 159.526 356.271 123.693C356.271 87.86 368.264 58.3437 392.249 35.144C416.464 11.7147 445.984 0 480.808 0C515.863 0 545.268 11.7147 569.023 35.144C593.008 58.3437 605 87.86 605 123.693C605 159.526 593.008 189.157 569.023 212.587C545.038 236.016 515.633 247.731 480.808 247.731C445.984 247.731 416.464 236.016 392.249 212.587Z" fill="white"/>
<path d="M283.673 503.042L197.534 261.168H260.495L320.688 445.502L380.881 261.168H443.842L357.704 503.042H283.673Z" fill="white"/>
<path d="M601.928 261.168V305.96H514.061V357.987H591.55V402.778H514.061V458.939H601.928V503.731H454.905V382.449V261.168H601.928Z" fill="white"/>
<path d="M293.355 523.715H357.007L289.203 765.588H221.4L178.85 612.264L136.645 765.588H68.8415L0 523.715H63.3064L105.511 697.712L148.753 523.715H215.865L257.377 694.956L293.355 523.715Z" fill="white"/>
<path d="M524.76 694.611C536.522 681.978 542.403 665.095 542.403 643.962C542.403 622.83 536.522 605.947 524.76 593.314C513.229 580.68 497.662 574.363 478.058 574.363C458.686 574.363 443.119 580.68 431.357 593.314C419.826 605.947 414.06 622.83 414.06 643.962C414.06 665.095 419.826 681.978 431.357 694.611C443.119 707.245 458.686 713.561 478.058 713.561C497.662 713.561 513.229 707.245 524.76 694.611ZM389.844 732.856C365.859 709.427 353.867 679.795 353.867 643.962C353.867 608.129 365.859 578.613 389.844 555.413C414.06 531.984 443.58 520.269 478.404 520.269C513.459 520.269 542.864 531.984 566.618 555.413C590.603 578.613 602.596 608.129 602.596 643.962C602.596 679.795 590.603 709.427 566.618 732.856C542.633 756.285 513.229 768 478.404 768C443.58 768 414.06 756.285 389.844 732.856Z" fill="white"/>
<path d="M226.637 929.938V1024H167.481V782.127H263.306C291.442 782.127 313.352 789.362 329.034 803.833C344.717 818.304 352.558 835.761 352.558 856.204C352.558 870.216 348.291 883.883 339.758 897.206C331.225 910.528 317.272 919.946 297.9 925.459L357.401 1024H288.213L233.555 929.938H226.637ZM226.637 826.918V885.147H263.306C272.3 885.147 279.334 882.505 284.408 877.222C289.713 871.939 292.365 865.048 292.365 856.549C292.365 847.821 289.713 840.7 284.408 835.187C279.104 829.674 272.07 826.918 263.306 826.918H226.637Z" fill="white"/>
<path d="M440.415 1024H381.26V782.127H440.415V888.248L520.672 782.127H598.162L498.186 903.063L598.162 1024H522.056L440.415 917.19V1024Z" fill="white"/>
</g>
</svg>
