<svg width="1601" height="166" viewBox="0 0 1601 166" xmlns="http://www.w3.org/2000/svg">
<path d="M59.5487 11.8925H0.935547V1.19323H130.024V11.8925H71.4109V164.008H59.5487V11.8925Z"/>
<path d="M260.154 153.308V164.008H147.812V1.19323H256.665V11.8925H159.674V76.0878H246.431V86.5545H159.674V153.308H260.154Z"/>
<path d="M334.571 165.171C322.631 165.171 311.234 163.155 300.379 159.123C289.68 154.936 281.307 149.587 275.26 143.074L280.609 134.236C286.346 140.283 294.022 145.245 303.636 149.122C313.405 152.843 323.639 154.704 334.338 154.704C349.844 154.704 361.551 151.758 369.459 145.865C377.367 139.973 381.322 132.298 381.322 122.839C381.322 115.551 379.228 109.736 375.042 105.394C370.855 101.053 365.66 97.7189 359.458 95.393C353.255 93.0671 344.882 90.6636 334.338 88.1826C322.398 85.2365 312.784 82.3678 305.497 79.5767C298.364 76.7856 292.239 72.5214 287.122 66.7842C282.16 60.8918 279.679 53.0612 279.679 43.2924C279.679 35.3842 281.772 28.1739 285.959 21.6613C290.145 14.9937 296.503 9.72161 305.031 5.84508C313.715 1.96854 324.492 0.0302734 337.362 0.0302734C346.355 0.0302734 355.194 1.3483 363.877 3.98434C372.561 6.62039 380.081 10.1868 386.439 14.6836L382.019 24.2198C375.507 19.7231 368.296 16.3117 360.388 13.9858C352.635 11.6599 344.96 10.4969 337.362 10.4969C322.321 10.4969 310.924 13.5206 303.171 19.568C295.418 25.6154 291.541 33.446 291.541 43.0598C291.541 50.3477 293.634 56.1625 297.821 60.5042C302.008 64.8459 307.202 68.1797 313.405 70.5056C319.607 72.8316 328.058 75.3125 338.757 77.9486C350.697 80.8947 360.233 83.7634 367.366 86.5545C374.499 89.3456 380.546 93.6098 385.508 99.347C390.625 104.929 393.184 112.527 393.184 122.141C393.184 130.049 391.013 137.26 386.671 143.772C382.484 150.285 375.972 155.479 367.133 159.356C358.295 163.232 347.441 165.171 334.571 165.171Z"/>
<path d="M450.776 11.8925H392.162V1.19323H521.251V11.8925H462.638V164.008H450.776V11.8925Z"/>
<path d="M539.039 1.19323H550.901V164.008H539.039V1.19323Z"/>
<path d="M749.982 164.008L749.749 24.685L681.6 142.377H675.785L607.635 25.1502V164.008H596.006V1.19323H606.007L678.808 127.025L751.61 1.19323H761.379L761.611 164.008H749.982Z"/>
<path d="M875.827 165.171C859.855 165.171 845.435 161.604 832.564 154.471C819.694 147.183 809.538 137.26 802.095 124.7C794.807 112.14 791.163 98.1065 791.163 82.6004C791.163 67.0943 794.807 53.0612 802.095 40.5013C809.538 27.9413 819.694 18.0949 832.564 10.9621C845.435 3.67421 859.855 0.0302734 875.827 0.0302734C891.798 0.0302734 906.219 3.59668 919.089 10.7295C931.959 17.8623 942.038 27.7087 949.326 40.2687C956.768 52.8286 960.49 66.9392 960.49 82.6004C960.49 98.2616 956.768 112.372 949.326 124.932C942.038 137.492 931.959 147.339 919.089 154.471C906.219 161.604 891.798 165.171 875.827 165.171ZM875.827 154.239C889.472 154.239 901.799 151.138 912.809 144.935C923.818 138.733 932.501 130.204 938.859 119.35C945.216 108.341 948.395 96.0907 948.395 82.6004C948.395 69.1101 945.216 56.9378 938.859 46.0835C932.501 35.0741 923.818 26.4682 912.809 20.2658C901.799 14.0633 889.472 10.9621 875.827 10.9621C862.181 10.9621 849.776 14.0633 838.612 20.2658C827.602 26.4682 818.919 35.0741 812.562 46.0835C806.204 56.9378 803.025 69.1101 803.025 82.6004C803.025 96.0907 806.204 108.341 812.562 119.35C818.919 130.204 827.602 138.733 838.612 144.935C849.776 151.138 862.181 154.239 875.827 154.239Z"/>
<path d="M1122.58 1.19323V164.008H1112.81L1001.87 22.5917V164.008H990.004V1.19323H1000.01L1110.72 142.609V1.19323H1122.58Z"/>
<path d="M1167.81 1.19323H1179.67V164.008H1167.81V1.19323Z"/>
<path d="M1325.49 118.187H1231.06L1210.36 164.008H1197.56L1272.46 1.19323H1284.32L1359.21 164.008H1346.42L1325.49 118.187ZM1321.07 108.186L1278.27 14.2184L1235.71 108.186H1321.07Z"/>
<path d="M1377.14 1.19323H1389V153.308H1482.74V164.008H1377.14V1.19323Z"/>
<path d="M1542.32 165.171C1530.38 165.171 1518.99 163.155 1508.13 159.123C1497.43 154.936 1489.06 149.587 1483.01 143.074L1488.36 134.236C1494.1 140.283 1501.77 145.245 1511.39 149.122C1521.16 152.843 1531.39 154.704 1542.09 154.704C1557.6 154.704 1569.3 151.758 1577.21 145.865C1585.12 139.973 1589.07 132.298 1589.07 122.839C1589.07 115.551 1586.98 109.736 1582.79 105.394C1578.61 101.053 1573.41 97.7189 1567.21 95.393C1561.01 93.0671 1552.63 90.6636 1542.09 88.1826C1530.15 85.2365 1520.54 82.3678 1513.25 79.5767C1506.12 76.7856 1499.99 72.5214 1494.87 66.7842C1489.91 60.8918 1487.43 53.0612 1487.43 43.2924C1487.43 35.3842 1489.52 28.1739 1493.71 21.6613C1497.9 14.9937 1504.25 9.72161 1512.78 5.84508C1521.47 1.96854 1532.24 0.0302734 1545.11 0.0302734C1554.11 0.0302734 1562.95 1.3483 1571.63 3.98434C1580.31 6.62039 1587.83 10.1868 1594.19 14.6836L1589.77 24.2198C1583.26 19.7231 1576.05 16.3117 1568.14 13.9858C1560.39 11.6599 1552.71 10.4969 1545.11 10.4969C1530.07 10.4969 1518.68 13.5206 1510.92 19.568C1503.17 25.6154 1499.29 33.446 1499.29 43.0598C1499.29 50.3477 1501.39 56.1625 1505.57 60.5042C1509.76 64.8459 1514.95 68.1797 1521.16 70.5056C1527.36 72.8316 1535.81 75.3125 1546.51 77.9486C1558.45 80.8947 1567.99 83.7634 1575.12 86.5545C1582.25 89.3456 1588.3 93.6098 1593.26 99.347C1598.38 104.929 1600.94 112.527 1600.94 122.141C1600.94 130.049 1598.76 137.26 1594.42 143.772C1590.24 150.285 1583.72 155.479 1574.89 159.356C1566.05 163.232 1555.19 165.171 1542.32 165.171Z"/>
</svg>
