<svg width="376" height="376" viewBox="0 0 376 376" xmlns="http://www.w3.org/2000/svg">
<path d="M31.3333 282.273C14.1681 253.937 5.17676 221.242 5.17676 188.001C5.17676 87.1893 87.1884 5.17773 188 5.17773C206.255 5.17773 224.51 7.90237 241.948 13.3516V19.0734C224.51 13.6241 206.528 10.627 188 10.627C90.1855 10.627 10.3536 90.1865 10.3536 188.273C10.3536 221.786 19.6173 254.21 37.3275 282.546H31.3333V282.273Z" fill="#F57B20"/>
<path d="M188 365.646C90.1854 365.646 10.3535 286.087 10.3535 188C10.3535 89.9129 89.9129 10.3535 188 10.3535C247.942 10.3535 302.707 40.052 335.948 89.6404L331.316 92.6376C299.165 44.4115 246.035 15.8027 188.272 15.8027C93.455 15.8027 16.3477 92.91 16.3477 187.727C16.3477 282.545 93.455 359.652 188.272 359.652C246.307 359.652 299.438 331.043 331.316 282.817L335.948 285.814C302.98 335.948 247.942 365.646 188 365.646Z" fill="#0079C2"/>
<path d="M188 376C84.4638 376 0 291.536 0 188C0 84.4638 84.4638 0 188 0C251.484 0 310.064 31.6058 344.939 84.4638L340.58 87.1884C306.522 35.6928 249.849 5.1768 188 5.1768C87.1884 5.1768 5.17679 87.1884 5.17679 188C5.17679 288.812 87.1884 370.823 188 370.823C249.849 370.823 306.522 340.307 340.58 288.812L344.939 291.536C310.064 344.394 251.484 376 188 376Z" fill="#00235D"/>
</svg>
